<svg width="24" height="24" viewBox="0 0 24 24" fill="none" xmlns="http://www.w3.org/2000/svg">
<mask id="mask0_3004_65087" style="mask-type:alpha" maskUnits="userSpaceOnUse" x="0" y="0" width="24" height="24">
<rect width="24" height="24" fill="#D9D9D9"/>
</mask>
<g mask="url(#mask0_3004_65087)">
<path d="M15 22C14.45 22 13.9792 21.8042 13.5875 21.4125C13.1958 21.0208 13 20.55 13 20V16C13 15.7167 13.0958 15.4792 13.2875 15.2875C13.4792 15.0958 13.7167 15 14 15C14.2833 15 14.5208 15.0958 14.7125 15.2875C14.9042 15.4792 15 15.7167 15 16V20H21V6H15V8C15 8.28333 14.9042 8.52083 14.7125 8.7125C14.5208 8.90417 14.2833 9 14 9C13.7167 9 13.4792 8.90417 13.2875 8.7125C13.0958 8.52083 13 8.28333 13 8V6C13 5.45 13.1958 4.97917 13.5875 4.5875C13.9792 4.19583 14.45 4 15 4H21C21.55 4 22.0208 4.19583 22.4125 4.5875C22.8042 4.97917 23 5.45 23 6V20C23 20.55 22.8042 21.0208 22.4125 21.4125C22.0208 21.8042 21.55 22 21 22H15ZM3 20C2.45 20 1.97917 19.8042 1.5875 19.4125C1.19583 19.0208 1 18.55 1 18V4C1 3.45 1.19583 2.97917 1.5875 2.5875C1.97917 2.19583 2.45 2 3 2H9C9.55 2 10.0208 2.19583 10.4125 2.5875C10.8042 2.97917 11 3.45 11 4V8C11 8.28333 10.9042 8.52083 10.7125 8.7125C10.5208 8.90417 10.2833 9 10 9C9.71667 9 9.47917 8.90417 9.2875 8.7125C9.09583 8.52083 9 8.28333 9 8V4H3V18H9V16C9 15.7167 9.09583 15.4792 9.2875 15.2875C9.47917 15.0958 9.71667 15 10 15C10.2833 15 10.5208 15.0958 10.7125 15.2875C10.9042 15.4792 11 15.7167 11 16V18C11 18.55 10.8042 19.0208 10.4125 19.4125C10.0208 19.8042 9.55 20 9 20H3ZM18 8.5C18.2167 8.5 18.3958 8.42917 18.5375 8.2875C18.6792 8.14583 18.75 7.96667 18.75 7.75C18.75 7.53333 18.6792 7.35417 18.5375 7.2125C18.3958 7.07083 18.2167 7 18 7C17.7833 7 17.6042 7.07083 17.4625 7.2125C17.3208 7.35417 17.25 7.53333 17.25 7.75C17.25 7.96667 17.3208 8.14583 17.4625 8.2875C17.6042 8.42917 17.7833 8.5 18 8.5ZM6 6.5C6.21667 6.5 6.39583 6.42917 6.5375 6.2875C6.67917 6.14583 6.75 5.96667 6.75 5.75C6.75 5.53333 6.67917 5.35417 6.5375 5.2125C6.39583 5.07083 6.21667 5 6 5C5.78333 5 5.60417 5.07083 5.4625 5.2125C5.32083 5.35417 5.25 5.53333 5.25 5.75C5.25 5.96667 5.32083 6.14583 5.4625 6.2875C5.60417 6.42917 5.78333 6.5 6 6.5ZM8 13C7.71667 13 7.47917 12.9042 7.2875 12.7125C7.09583 12.5208 7 12.2833 7 12C7 11.7167 7.09583 11.4792 7.2875 11.2875C7.47917 11.0958 7.71667 11 8 11C8.28333 11 8.52083 11.0958 8.7125 11.2875C8.90417 11.4792 9 11.7167 9 12C9 12.2833 8.90417 12.5208 8.7125 12.7125C8.52083 12.9042 8.28333 13 8 13ZM12 13C11.7167 13 11.4792 12.9042 11.2875 12.7125C11.0958 12.5208 11 12.2833 11 12C11 11.7167 11.0958 11.4792 11.2875 11.2875C11.4792 11.0958 11.7167 11 12 11C12.2833 11 12.5208 11.0958 12.7125 11.2875C12.9042 11.4792 13 11.7167 13 12C13 12.2833 12.9042 12.5208 12.7125 12.7125C12.5208 12.9042 12.2833 13 12 13ZM16 13C15.7167 13 15.4792 12.9042 15.2875 12.7125C15.0958 12.5208 15 12.2833 15 12C15 11.7167 15.0958 11.4792 15.2875 11.2875C15.4792 11.0958 15.7167 11 16 11C16.2833 11 16.5208 11.0958 16.7125 11.2875C16.9042 11.4792 17 11.7167 17 12C17 12.2833 16.9042 12.5208 16.7125 12.7125C16.5208 12.9042 16.2833 13 16 13Z" fill="white"/>
</g>
</svg>
