<svg width="16" height="16" viewBox="0 0 16 16" fill="none" xmlns="http://www.w3.org/2000/svg">
<mask id="mask0_48_691" style="mask-type:alpha" maskUnits="userSpaceOnUse" x="0" y="0" width="16" height="16">
<rect width="16" height="16" fill="#D9D9D9"/>
</mask>
<g mask="url(#mask0_48_691)">
<path d="M7.28073 10.0834L6.3474 9.15004C6.28073 9.08337 6.20851 9.03337 6.13073 9.00004C6.05295 8.96671 5.9724 8.95004 5.88906 8.95004C5.80573 8.95004 5.7224 8.96671 5.63906 9.00004C5.55573 9.03337 5.48073 9.08337 5.41406 9.15004C5.28073 9.28337 5.21406 9.44171 5.21406 9.62504C5.21406 9.80837 5.28073 9.96671 5.41406 10.1L6.83073 11.5334C6.8974 11.6 6.96962 11.6473 7.0474 11.675C7.12517 11.7028 7.20851 11.7167 7.2974 11.7167C7.38628 11.7167 7.46962 11.7028 7.5474 11.675C7.62517 11.6473 7.6974 11.6 7.76406 11.5334L10.5807 8.71671C10.7141 8.58337 10.7807 8.42226 10.7807 8.23337C10.7807 8.04449 10.7141 7.88337 10.5807 7.75004C10.4474 7.61671 10.2863 7.55004 10.0974 7.55004C9.90851 7.55004 9.7474 7.61671 9.61406 7.75004L7.28073 10.0834ZM3.9974 14.6667C3.63073 14.6667 3.31684 14.5362 3.05573 14.275C2.79462 14.0139 2.66406 13.7 2.66406 13.3334V2.66671C2.66406 2.30004 2.79462 1.98615 3.05573 1.72504C3.31684 1.46393 3.63073 1.33337 3.9974 1.33337H8.78073C8.95851 1.33337 9.12795 1.36671 9.28906 1.43337C9.45017 1.50004 9.59184 1.59449 9.71406 1.71671L12.9474 4.95004C13.0696 5.07226 13.1641 5.21393 13.2307 5.37504C13.2974 5.53615 13.3307 5.7056 13.3307 5.88337V13.3334C13.3307 13.7 13.2002 14.0139 12.9391 14.275C12.678 14.5362 12.3641 14.6667 11.9974 14.6667H3.9974ZM8.66406 5.33337V2.66671H3.9974V13.3334H11.9974V6.00004H9.33073C9.14184 6.00004 8.98351 5.93615 8.85573 5.80837C8.72795 5.6806 8.66406 5.52226 8.66406 5.33337Z" fill="#55586B"/>
</g>
</svg>
