<svg width="16" height="16" viewBox="0 0 16 16" fill="none" xmlns="http://www.w3.org/2000/svg">
<mask id="mask0_59_107" style="mask-type:alpha" maskUnits="userSpaceOnUse" x="0" y="0" width="16" height="16">
<rect width="16" height="16" fill="#D9D9D9"/>
</mask>
<g mask="url(#mask0_59_107)">
<path d="M7.99792 9.98337C7.90903 9.98337 7.82569 9.96948 7.74792 9.9417C7.67014 9.91392 7.59792 9.8667 7.53125 9.80003L4.46458 6.73337C4.34236 6.61114 4.28125 6.45559 4.28125 6.2667C4.28125 6.07781 4.34236 5.92225 4.46458 5.80003C4.58681 5.67781 4.74236 5.6167 4.93125 5.6167C5.12014 5.6167 5.27569 5.67781 5.39792 5.80003L7.99792 8.40003L10.5979 5.80003C10.7201 5.67781 10.8757 5.6167 11.0646 5.6167C11.2535 5.6167 11.409 5.67781 11.5312 5.80003C11.6535 5.92225 11.7146 6.07781 11.7146 6.2667C11.7146 6.45559 11.6535 6.61114 11.5312 6.73337L8.46458 9.80003C8.39792 9.8667 8.32569 9.91392 8.24792 9.9417C8.17014 9.96948 8.08681 9.98337 7.99792 9.98337Z" fill="#55586B"/>
</g>
</svg>
