<svg width="16" height="16" viewBox="0 0 16 16" fill="none" xmlns="http://www.w3.org/2000/svg">
<mask id="mask0_48_654" style="mask-type:alpha" maskUnits="userSpaceOnUse" x="0" y="0" width="16" height="16">
<rect width="16" height="16" fill="#D9D9D9"/>
</mask>
<g mask="url(#mask0_48_654)">
<path d="M11.0026 13.3333C10.1693 13.3333 9.46094 13.0416 8.8776 12.4583C8.29427 11.875 8.0026 11.1666 8.0026 10.3333C8.0026 9.49996 8.29427 8.79163 8.8776 8.20829C9.46094 7.62496 10.1693 7.33329 11.0026 7.33329C11.8359 7.33329 12.5443 7.62496 13.1276 8.20829C13.7109 8.79163 14.0026 9.49996 14.0026 10.3333C14.0026 10.6222 13.9609 10.9 13.8776 11.1666C13.7943 11.4333 13.6804 11.6888 13.5359 11.9333L14.8693 13.2666C14.9915 13.3888 15.0526 13.5444 15.0526 13.7333C15.0526 13.9222 14.9915 14.0777 14.8693 14.2C14.747 14.3222 14.5915 14.3833 14.4026 14.3833C14.2137 14.3833 14.0582 14.3222 13.9359 14.2L12.6026 12.8666C12.3582 13.0111 12.1026 13.125 11.8359 13.2083C11.5693 13.2916 11.2915 13.3333 11.0026 13.3333ZM11.0026 12C11.4693 12 11.8637 11.8388 12.1859 11.5166C12.5082 11.1944 12.6693 10.8 12.6693 10.3333C12.6693 9.86663 12.5082 9.47218 12.1859 9.14996C11.8637 8.82774 11.4693 8.66663 11.0026 8.66663C10.5359 8.66663 10.1415 8.82774 9.81927 9.14996C9.49705 9.47218 9.33594 9.86663 9.33594 10.3333C9.33594 10.8 9.49705 11.1944 9.81927 11.5166C10.1415 11.8388 10.5359 12 11.0026 12ZM2.66927 12V5.99996V6.66663V3.99996V12ZM2.66927 13.3333C2.3026 13.3333 1.98872 13.2027 1.7276 12.9416C1.46649 12.6805 1.33594 12.3666 1.33594 12V3.99996C1.33594 3.63329 1.46649 3.3194 1.7276 3.05829C1.98872 2.79718 2.3026 2.66663 2.66927 2.66663H13.3359C13.7026 2.66663 14.0165 2.79718 14.2776 3.05829C14.5387 3.3194 14.6693 3.63329 14.6693 3.99996V5.99996C14.6693 6.18885 14.6054 6.34718 14.4776 6.47496C14.3498 6.60274 14.1915 6.66663 14.0026 6.66663H8.66927V3.99996H2.66927V12H6.0026C6.19149 12 6.34983 12.0638 6.4776 12.1916C6.60538 12.3194 6.66927 12.4777 6.66927 12.6666C6.66927 12.8555 6.60538 13.0138 6.4776 13.1416C6.34983 13.2694 6.19149 13.3333 6.0026 13.3333H2.66927Z" fill="#55586B"/>
</g>
</svg>
