<svg width="16" height="16" viewBox="0 0 16 16" fill="none" xmlns="http://www.w3.org/2000/svg">
<mask id="mask0_48_647" style="mask-type:alpha" maskUnits="userSpaceOnUse" x="0" y="0" width="16" height="16">
<rect width="16" height="16" fill="#D9D9D9"/>
</mask>
<g mask="url(#mask0_48_647)">
<path d="M12.6693 12.6666H5.33594C4.96927 12.6666 4.65538 12.5361 4.39427 12.275C4.13316 12.0138 4.0026 11.7 4.0026 11.3333V1.99996C4.0026 1.63329 4.13316 1.3194 4.39427 1.05829C4.65538 0.797182 4.96927 0.666626 5.33594 0.666626H9.4526C9.63038 0.666626 9.79983 0.699959 9.96094 0.766626C10.122 0.833293 10.2637 0.927737 10.3859 1.04996L13.6193 4.28329C13.7415 4.40552 13.8359 4.54718 13.9026 4.70829C13.9693 4.8694 14.0026 5.03885 14.0026 5.21663V11.3333C14.0026 11.7 13.872 12.0138 13.6109 12.275C13.3498 12.5361 13.0359 12.6666 12.6693 12.6666ZM12.6693 5.33329H10.3359C10.0582 5.33329 9.82205 5.23607 9.6276 5.04163C9.43316 4.84718 9.33594 4.61107 9.33594 4.33329V1.99996H5.33594V11.3333H12.6693V5.33329ZM2.66927 15.3333C2.3026 15.3333 1.98872 15.2027 1.7276 14.9416C1.46649 14.6805 1.33594 14.3666 1.33594 14V5.33329C1.33594 5.1444 1.39983 4.98607 1.5276 4.85829C1.65538 4.73052 1.81372 4.66663 2.0026 4.66663C2.19149 4.66663 2.34983 4.73052 2.4776 4.85829C2.60538 4.98607 2.66927 5.1444 2.66927 5.33329V14H9.33594C9.52483 14 9.68316 14.0638 9.81094 14.1916C9.93872 14.3194 10.0026 14.4777 10.0026 14.6666C10.0026 14.8555 9.93872 15.0138 9.81094 15.1416C9.68316 15.2694 9.52483 15.3333 9.33594 15.3333H2.66927Z" fill="#55586B"/>
</g>
</svg>
