<svg width="24" height="24" viewBox="0 0 24 24" fill="none" xmlns="http://www.w3.org/2000/svg">
<mask id="mask0_3026_183971" style="mask-type:alpha" maskUnits="userSpaceOnUse" x="0" y="0" width="24" height="24">
<rect width="24" height="24" fill="#D9D9D9"/>
</mask>
<g mask="url(#mask0_3026_183971)">
<path d="M11 10.15V7C11 6.71667 11.0958 6.47917 11.2875 6.2875C11.4792 6.09583 11.7167 6 12 6C12.2833 6 12.5208 6.09583 12.7125 6.2875C12.9042 6.47917 13 6.71667 13 7V10.15L13.875 9.275C13.975 9.175 14.0875 9.1 14.2125 9.05C14.3375 9 14.4625 8.97917 14.5875 8.9875C14.7125 8.99583 14.8375 9.025 14.9625 9.075C15.0875 9.125 15.2 9.2 15.3 9.3C15.4833 9.5 15.5792 9.73333 15.5875 10C15.5958 10.2667 15.5 10.5 15.3 10.7L12.7 13.3C12.6 13.4 12.4917 13.4708 12.375 13.5125C12.2583 13.5542 12.1333 13.575 12 13.575C11.8667 13.575 11.7417 13.5542 11.625 13.5125C11.5083 13.4708 11.4 13.4 11.3 13.3L8.7 10.7C8.6 10.6 8.525 10.4875 8.475 10.3625C8.425 10.2375 8.4 10.1125 8.4 9.9875C8.4 9.8625 8.425 9.74167 8.475 9.625C8.525 9.50833 8.6 9.4 8.7 9.3C8.9 9.1 9.1375 8.99583 9.4125 8.9875C9.6875 8.97917 9.925 9.075 10.125 9.275L11 10.15ZM5 21C4.45 21 3.97917 20.8042 3.5875 20.4125C3.19583 20.0208 3 19.55 3 19V5C3 4.45 3.19583 3.97917 3.5875 3.5875C3.97917 3.19583 4.45 3 5 3H19C19.55 3 20.0208 3.19583 20.4125 3.5875C20.8042 3.97917 21 4.45 21 5V19C21 19.55 20.8042 20.0208 20.4125 20.4125C20.0208 20.8042 19.55 21 19 21H5ZM5 19H19V16H16C15.5 16.6333 14.9042 17.125 14.2125 17.475C13.5208 17.825 12.7833 18 12 18C11.2167 18 10.4792 17.825 9.7875 17.475C9.09583 17.125 8.5 16.6333 8 16H5V19ZM12 16C12.5333 16 13.025 15.8625 13.475 15.5875C13.925 15.3125 14.2917 14.95 14.575 14.5C14.675 14.35 14.8 14.2292 14.95 14.1375C15.1 14.0458 15.2667 14 15.45 14H19V5H5V14H8.55C8.73333 14 8.9 14.0458 9.05 14.1375C9.2 14.2292 9.325 14.35 9.425 14.5C9.70833 14.95 10.075 15.3125 10.525 15.5875C10.975 15.8625 11.4667 16 12 16Z" fill="white"/>
</g>
</svg>
