<svg width="24" height="24" viewBox="0 0 24 24" fill="none" xmlns="http://www.w3.org/2000/svg">
<mask id="mask0_3026_183976" style="mask-type:alpha" maskUnits="userSpaceOnUse" x="0" y="0" width="24" height="24">
<rect width="24" height="24" fill="#D9D9D9"/>
</mask>
<g mask="url(#mask0_3026_183976)">
<path d="M16.5 20C15.25 20 14.1875 19.5625 13.3125 18.6875C12.4375 17.8125 12 16.75 12 15.5C12 14.25 12.4375 13.1875 13.3125 12.3125C14.1875 11.4375 15.25 11 16.5 11C17.75 11 18.8125 11.4375 19.6875 12.3125C20.5625 13.1875 21 14.25 21 15.5C21 15.9333 20.9375 16.35 20.8125 16.75C20.6875 17.15 20.5167 17.5333 20.3 17.9L22.3 19.9C22.4833 20.0833 22.575 20.3167 22.575 20.6C22.575 20.8833 22.4833 21.1167 22.3 21.3C22.1167 21.4833 21.8833 21.575 21.6 21.575C21.3167 21.575 21.0833 21.4833 20.9 21.3L18.9 19.3C18.5333 19.5167 18.15 19.6875 17.75 19.8125C17.35 19.9375 16.9333 20 16.5 20ZM16.5 18C17.2 18 17.7917 17.7583 18.275 17.275C18.7583 16.7917 19 16.2 19 15.5C19 14.8 18.7583 14.2083 18.275 13.725C17.7917 13.2417 17.2 13 16.5 13C15.8 13 15.2083 13.2417 14.725 13.725C14.2417 14.2083 14 14.8 14 15.5C14 16.2 14.2417 16.7917 14.725 17.275C15.2083 17.7583 15.8 18 16.5 18ZM4 18V9V10V6V18ZM4 20C3.45 20 2.97917 19.8042 2.5875 19.4125C2.19583 19.0208 2 18.55 2 18V6C2 5.45 2.19583 4.97917 2.5875 4.5875C2.97917 4.19583 3.45 4 4 4H20C20.55 4 21.0208 4.19583 21.4125 4.5875C21.8042 4.97917 22 5.45 22 6V9C22 9.28333 21.9042 9.52083 21.7125 9.7125C21.5208 9.90417 21.2833 10 21 10H13V6H4V18H9C9.28333 18 9.52083 18.0958 9.7125 18.2875C9.90417 18.4792 10 18.7167 10 19C10 19.2833 9.90417 19.5208 9.7125 19.7125C9.52083 19.9042 9.28333 20 9 20H4Z" fill="white"/>
</g>
</svg>
