<svg width="24" height="24" viewBox="0 0 24 24" fill="none" xmlns="http://www.w3.org/2000/svg">
<mask id="mask0_3026_183985" style="mask-type:alpha" maskUnits="userSpaceOnUse" x="0" y="0" width="24" height="24">
<rect width="24" height="24" fill="#D9D9D9"/>
</mask>
<g mask="url(#mask0_3026_183985)">
<path d="M8 22C7.45 22 6.97917 21.8042 6.5875 21.4125C6.19583 21.0208 6 20.55 6 20V8C6 7.45 6.19583 6.97917 6.5875 6.5875C6.97917 6.19583 7.45 6 8 6H20C20.55 6 21.0208 6.19583 21.4125 6.5875C21.8042 6.97917 22 7.45 22 8V20C22 20.55 21.8042 21.0208 21.4125 21.4125C21.0208 21.8042 20.55 22 20 22H8ZM8 20H13V17H8V20ZM15 20H20V17H15V20ZM3 18C2.71667 18 2.47917 17.9042 2.2875 17.7125C2.09583 17.5208 2 17.2833 2 17V4C2 3.45 2.19583 2.97917 2.5875 2.5875C2.97917 2.19583 3.45 2 4 2H17C17.2833 2 17.5208 2.09583 17.7125 2.2875C17.9042 2.47917 18 2.71667 18 3C18 3.28333 17.9042 3.52083 17.7125 3.7125C17.5208 3.90417 17.2833 4 17 4H4V17C4 17.2833 3.90417 17.5208 3.7125 17.7125C3.52083 17.9042 3.28333 18 3 18ZM8 15H13V12H8V15ZM15 15H20V12H15V15ZM8 10H20V8H8V10Z" fill="white"/>
</g>
</svg>
