<svg width="16" height="16" viewBox="0 0 16 16" fill="none" xmlns="http://www.w3.org/2000/svg">
<mask id="mask0_48_655" style="mask-type:alpha" maskUnits="userSpaceOnUse" x="0" y="0" width="16" height="16">
<rect width="16" height="16" fill="#D9D9D9"/>
</mask>
<g mask="url(#mask0_48_655)">
<path d="M11.3333 10.6667C10.7778 10.6667 10.3056 10.4722 9.91667 10.0833C9.52778 9.69444 9.33333 9.22222 9.33333 8.66667C9.33333 8.11111 9.52778 7.63889 9.91667 7.25C10.3056 6.86111 10.7778 6.66667 11.3333 6.66667C11.8889 6.66667 12.3611 6.86111 12.75 7.25C13.1389 7.63889 13.3333 8.11111 13.3333 8.66667C13.3333 9.22222 13.1389 9.69444 12.75 10.0833C12.3611 10.4722 11.8889 10.6667 11.3333 10.6667ZM11.3333 9.33333C11.5222 9.33333 11.6806 9.26944 11.8083 9.14167C11.9361 9.01389 12 8.85556 12 8.66667C12 8.47778 11.9361 8.31944 11.8083 8.19167C11.6806 8.06389 11.5222 8 11.3333 8C11.1444 8 10.9861 8.06389 10.8583 8.19167C10.7306 8.31944 10.6667 8.47778 10.6667 8.66667C10.6667 8.85556 10.7306 9.01389 10.8583 9.14167C10.9861 9.26944 11.1444 9.33333 11.3333 9.33333ZM8 15.3333C7.81111 15.3333 7.65278 15.2694 7.525 15.1417C7.39722 15.0139 7.33333 14.8556 7.33333 14.6667V13.4C7.33333 13.1667 7.38889 12.9472 7.5 12.7417C7.61111 12.5361 7.76667 12.3722 7.96667 12.25C8.32222 12.0389 8.62222 11.8917 8.86667 11.8083C9.11111 11.725 9.43889 11.65 9.85 11.5833C9.98333 11.5611 10.1167 11.5639 10.25 11.5917C10.3833 11.6194 10.4944 11.6833 10.5833 11.7833L11.3333 12.6667L12.0667 11.7833C12.1556 11.6722 12.2667 11.6056 12.4 11.5833C12.5333 11.5611 12.6667 11.5611 12.8 11.5833C13.2111 11.65 13.5389 11.725 13.7833 11.8083C14.0278 11.8917 14.3278 12.0389 14.6833 12.25C14.8833 12.3722 15.0417 12.5361 15.1583 12.7417C15.275 12.9472 15.3333 13.1667 15.3333 13.4V14.6667C15.3333 14.8556 15.2694 15.0139 15.1417 15.1417C15.0139 15.2694 14.8556 15.3333 14.6667 15.3333H8ZM8.65 14H10.7L9.8 12.9C9.6 12.9556 9.40555 13.0278 9.21667 13.1167C9.02778 13.2056 8.83889 13.3 8.65 13.4V14ZM11.9667 14H14V13.4C13.8222 13.2889 13.6389 13.1917 13.45 13.1083C13.2611 13.025 13.0667 12.9556 12.8667 12.9L11.9667 14ZM3.33333 12.6667V3.33333V5.61667V5.33333V12.6667ZM3.33333 14C2.96667 14 2.65278 13.8694 2.39167 13.6083C2.13056 13.3472 2 13.0333 2 12.6667V3.33333C2 2.96667 2.13056 2.65278 2.39167 2.39167C2.65278 2.13056 2.96667 2 3.33333 2H12.6667C13.0333 2 13.3472 2.13056 13.6083 2.39167C13.8694 2.65278 14 2.96667 14 3.33333V6.66667C13.8222 6.44444 13.6278 6.23333 13.4167 6.03333C13.2056 5.83333 12.9556 5.7 12.6667 5.63333V3.33333H3.33333V12.6667H6.1C6.06667 12.7889 6.04167 12.9111 6.025 13.0333C6.00833 13.1556 6 13.2778 6 13.4V14H3.33333ZM5.33333 6H9.33333C9.62222 5.77778 9.93889 5.61111 10.2833 5.5C10.6278 5.38889 10.9778 5.33333 11.3333 5.33333C11.3333 5.14444 11.2694 4.98611 11.1417 4.85833C11.0139 4.73056 10.8556 4.66667 10.6667 4.66667H5.33333C5.14444 4.66667 4.98611 4.73056 4.85833 4.85833C4.73056 4.98611 4.66667 5.14444 4.66667 5.33333C4.66667 5.52222 4.73056 5.68056 4.85833 5.80833C4.98611 5.93611 5.14444 6 5.33333 6ZM5.33333 8.66667H8C8 8.43333 8.025 8.20556 8.075 7.98333C8.125 7.76111 8.19444 7.54444 8.28333 7.33333H5.33333C5.14444 7.33333 4.98611 7.39722 4.85833 7.525C4.73056 7.65278 4.66667 7.81111 4.66667 8C4.66667 8.18889 4.73056 8.34722 4.85833 8.475C4.98611 8.60278 5.14444 8.66667 5.33333 8.66667ZM5.33333 11.3333H6.96667C7.08889 11.2333 7.21944 11.1444 7.35833 11.0667C7.49722 10.9889 7.63889 10.9167 7.78333 10.85V10.6667C7.78333 10.4889 7.73611 10.3333 7.64167 10.2C7.54722 10.0667 7.37222 10 7.11667 10H5.33333C5.14444 10 4.98611 10.0639 4.85833 10.1917C4.73056 10.3194 4.66667 10.4778 4.66667 10.6667C4.66667 10.8556 4.73056 11.0139 4.85833 11.1417C4.98611 11.2694 5.14444 11.3333 5.33333 11.3333Z" fill="#55586B"/>
</g>
</svg>
