<svg width="16" height="16" viewBox="0 0 16 16" fill="none" xmlns="http://www.w3.org/2000/svg">
<mask id="mask0_48_650" style="mask-type:alpha" maskUnits="userSpaceOnUse" x="0" y="0" width="16" height="16">
<rect width="16" height="16" fill="#D9D9D9"/>
</mask>
<g mask="url(#mask0_48_650)">
<path d="M2.66927 14C2.3026 14 1.98872 13.8694 1.7276 13.6083C1.46649 13.3472 1.33594 13.0333 1.33594 12.6667V4.66667C1.33594 4.3 1.46649 3.98611 1.7276 3.725C1.98872 3.46389 2.3026 3.33333 2.66927 3.33333H4.76927L5.6026 2.43333C5.72483 2.3 5.87205 2.19444 6.04427 2.11667C6.21649 2.03889 6.39705 2 6.58594 2H9.41927C9.60816 2 9.78871 2.03889 9.96094 2.11667C10.1332 2.19444 10.2804 2.3 10.4026 2.43333L11.2359 3.33333H13.3359C13.7026 3.33333 14.0165 3.46389 14.2776 3.725C14.5387 3.98611 14.6693 4.3 14.6693 4.66667V12.6667C14.6693 13.0333 14.5387 13.3472 14.2776 13.6083C14.0165 13.8694 13.7026 14 13.3359 14H2.66927ZM2.66927 12.6667H13.3359V4.66667H10.6359L9.41927 3.33333H6.58594L5.36927 4.66667H2.66927V12.6667ZM5.33594 11.3333H10.6693V10.9667C10.6693 10.4667 10.4248 10.0694 9.93594 9.775C9.44705 9.48056 8.8026 9.33333 8.0026 9.33333C7.2026 9.33333 6.55816 9.48056 6.06927 9.775C5.58038 10.0694 5.33594 10.4667 5.33594 10.9667V11.3333ZM8.0026 8.66667C8.36927 8.66667 8.68316 8.53611 8.94427 8.275C9.20538 8.01389 9.33594 7.7 9.33594 7.33333C9.33594 6.96667 9.20538 6.65278 8.94427 6.39167C8.68316 6.13056 8.36927 6 8.0026 6C7.63594 6 7.32205 6.13056 7.06094 6.39167C6.79983 6.65278 6.66927 6.96667 6.66927 7.33333C6.66927 7.7 6.79983 8.01389 7.06094 8.275C7.32205 8.53611 7.63594 8.66667 8.0026 8.66667Z" fill="#55586B"/>
</g>
</svg>
