<svg width="16" height="16" viewBox="0 0 16 16" fill="none" xmlns="http://www.w3.org/2000/svg">
<mask id="mask0_48_679" style="mask-type:alpha" maskUnits="userSpaceOnUse" x="0" y="0" width="16" height="16">
<rect width="16" height="16" fill="#D9D9D9"/>
</mask>
<g mask="url(#mask0_48_679)">
<path d="M5.33333 7.83337V5.00004C5.33333 4.72226 5.43056 4.48615 5.625 4.29171C5.81944 4.09726 6.05556 4.00004 6.33333 4.00004C6.61111 4.00004 6.84722 4.09726 7.04167 4.29171C7.23611 4.48615 7.33333 4.72226 7.33333 5.00004V7.83337C7.33333 8.11115 7.23611 8.34726 7.04167 8.54171C6.84722 8.73615 6.61111 8.83337 6.33333 8.83337C6.05556 8.83337 5.81944 8.73615 5.625 8.54171C5.43056 8.34726 5.33333 8.11115 5.33333 7.83337ZM8.66667 7.68337V2.33337C8.66667 2.0556 8.76389 1.81949 8.95833 1.62504C9.15278 1.4306 9.38889 1.33337 9.66667 1.33337C9.94444 1.33337 10.1806 1.4306 10.375 1.62504C10.5694 1.81949 10.6667 2.0556 10.6667 2.33337V7.68337C10.6667 8.01671 10.5639 8.26671 10.3583 8.43337C10.1528 8.60004 9.92222 8.68337 9.66667 8.68337C9.41111 8.68337 9.18056 8.60004 8.975 8.43337C8.76944 8.26671 8.66667 8.01671 8.66667 7.68337ZM2 9.98338V7.66671C2 7.38893 2.09722 7.15282 2.29167 6.95837C2.48611 6.76393 2.72222 6.66671 3 6.66671C3.27778 6.66671 3.51389 6.76393 3.70833 6.95837C3.90278 7.15282 4 7.38893 4 7.66671V9.98338C4 10.3167 3.89722 10.5667 3.69167 10.7334C3.48611 10.9 3.25556 10.9834 3 10.9834C2.74444 10.9834 2.51389 10.9 2.30833 10.7334C2.10278 10.5667 2 10.3167 2 9.98338ZM3.6 14.0334C3.31111 14.0334 3.10833 13.8973 2.99167 13.625C2.875 13.3528 2.92222 13.1112 3.13333 12.9L5.86667 10.1667C5.98889 10.0445 6.13611 9.97782 6.30833 9.96671C6.48056 9.9556 6.63333 10.0112 6.76667 10.1334L8.66667 11.7667L12.4 8.03337H12C11.8111 8.03337 11.6528 7.96949 11.525 7.84171C11.3972 7.71393 11.3333 7.5556 11.3333 7.36671C11.3333 7.17782 11.3972 7.01949 11.525 6.89171C11.6528 6.76393 11.8111 6.70004 12 6.70004H14C14.1889 6.70004 14.3472 6.76393 14.475 6.89171C14.6028 7.01949 14.6667 7.17782 14.6667 7.36671V9.36671C14.6667 9.5556 14.6028 9.71393 14.475 9.84171C14.3472 9.96949 14.1889 10.0334 14 10.0334C13.8111 10.0334 13.6528 9.96949 13.525 9.84171C13.3972 9.71393 13.3333 9.5556 13.3333 9.36671V8.96671L9.16667 13.1334C9.04444 13.2556 8.89722 13.3223 8.725 13.3334C8.55278 13.3445 8.4 13.2889 8.26667 13.1667L6.36667 11.5334L4.06667 13.8334C4.01111 13.8889 3.94167 13.9362 3.85833 13.975C3.775 14.0139 3.68889 14.0334 3.6 14.0334Z" fill="#55586B"/>
</g>
</svg>
