<svg width="16" height="16" viewBox="0 0 16 16" fill="none" xmlns="http://www.w3.org/2000/svg">
<mask id="mask0_48_653" style="mask-type:alpha" maskUnits="userSpaceOnUse" x="0" y="0" width="16" height="16">
<rect width="16" height="16" fill="#D9D9D9"/>
</mask>
<g mask="url(#mask0_48_653)">
<path d="M0.664062 12.6666V10.6666C0.664062 10.2888 0.794618 9.97218 1.05573 9.71663C1.31684 9.46107 1.63073 9.33329 1.9974 9.33329H4.18073C4.40295 9.33329 4.61406 9.38885 4.81406 9.49996C5.01406 9.61107 5.17517 9.76107 5.2974 9.94996C5.61962 10.3833 6.01684 10.7222 6.48906 10.9666C6.96129 11.2111 7.46406 11.3333 7.9974 11.3333C8.54184 11.3333 9.05017 11.2111 9.5224 10.9666C9.99462 10.7222 10.3863 10.3833 10.6974 9.94996C10.8418 9.76107 11.0113 9.61107 11.2057 9.49996C11.4002 9.38885 11.603 9.33329 11.8141 9.33329H13.9974C14.3752 9.33329 14.6918 9.46107 14.9474 9.71663C15.203 9.97218 15.3307 10.2888 15.3307 10.6666V12.6666C15.3307 12.8555 15.2668 13.0138 15.1391 13.1416C15.0113 13.2694 14.853 13.3333 14.6641 13.3333H11.3307C11.1418 13.3333 10.9835 13.2694 10.8557 13.1416C10.728 13.0138 10.6641 12.8555 10.6641 12.6666V11.8166C10.2752 12.0944 9.85573 12.3055 9.40573 12.45C8.95573 12.5944 8.48628 12.6666 7.9974 12.6666C7.51962 12.6666 7.05295 12.5916 6.5974 12.4416C6.14184 12.2916 5.71962 12.0777 5.33073 11.8V12.6666C5.33073 12.8555 5.26684 13.0138 5.13906 13.1416C5.01128 13.2694 4.85295 13.3333 4.66406 13.3333H1.33073C1.14184 13.3333 0.983507 13.2694 0.855729 13.1416C0.727951 13.0138 0.664062 12.8555 0.664062 12.6666ZM7.9974 10.6666C7.57517 10.6666 7.17517 10.5694 6.7974 10.375C6.41962 10.1805 6.10295 9.91107 5.8474 9.56663C5.65851 9.28885 5.4224 9.0694 5.13906 8.90829C4.85573 8.74718 4.5474 8.66663 4.21406 8.66663C4.45851 8.25552 4.97517 7.93051 5.76406 7.69163C6.55295 7.45274 7.2974 7.33329 7.9974 7.33329C8.6974 7.33329 9.44184 7.45274 10.2307 7.69163C11.0196 7.93051 11.5363 8.25552 11.7807 8.66663C11.4585 8.66663 11.153 8.74718 10.8641 8.90829C10.5752 9.0694 10.3363 9.28885 10.1474 9.56663C9.90295 9.92218 9.59184 10.1944 9.21406 10.3833C8.83628 10.5722 8.43073 10.6666 7.9974 10.6666ZM2.66406 8.66663C2.10851 8.66663 1.63628 8.47218 1.2474 8.08329C0.858507 7.6944 0.664062 7.22218 0.664062 6.66663C0.664062 6.09996 0.858507 5.62496 1.2474 5.24163C1.63628 4.85829 2.10851 4.66663 2.66406 4.66663C3.23073 4.66663 3.70573 4.85829 4.08906 5.24163C4.4724 5.62496 4.66406 6.09996 4.66406 6.66663C4.66406 7.22218 4.4724 7.6944 4.08906 8.08329C3.70573 8.47218 3.23073 8.66663 2.66406 8.66663ZM13.3307 8.66663C12.7752 8.66663 12.303 8.47218 11.9141 8.08329C11.5252 7.6944 11.3307 7.22218 11.3307 6.66663C11.3307 6.09996 11.5252 5.62496 11.9141 5.24163C12.303 4.85829 12.7752 4.66663 13.3307 4.66663C13.8974 4.66663 14.3724 4.85829 14.7557 5.24163C15.1391 5.62496 15.3307 6.09996 15.3307 6.66663C15.3307 7.22218 15.1391 7.6944 14.7557 8.08329C14.3724 8.47218 13.8974 8.66663 13.3307 8.66663ZM7.9974 6.66663C7.44184 6.66663 6.96962 6.47218 6.58073 6.08329C6.19184 5.6944 5.9974 5.22218 5.9974 4.66663C5.9974 4.09996 6.19184 3.62496 6.58073 3.24163C6.96962 2.85829 7.44184 2.66663 7.9974 2.66663C8.56406 2.66663 9.03906 2.85829 9.4224 3.24163C9.80573 3.62496 9.9974 4.09996 9.9974 4.66663C9.9974 5.22218 9.80573 5.6944 9.4224 6.08329C9.03906 6.47218 8.56406 6.66663 7.9974 6.66663Z" fill="#55586B"/>
</g>
</svg>
