<svg width="16" height="16" viewBox="0 0 16 16" fill="none" xmlns="http://www.w3.org/2000/svg">
<mask id="mask0_48_673" style="mask-type:alpha" maskUnits="userSpaceOnUse" x="0" y="0" width="16" height="16">
<rect width="16" height="16" fill="#D9D9D9"/>
</mask>
<g mask="url(#mask0_48_673)">
<path d="M7.33333 6.76667V4.66667C7.33333 4.47778 7.39722 4.31944 7.525 4.19167C7.65278 4.06389 7.81111 4 8 4C8.18889 4 8.34722 4.06389 8.475 4.19167C8.60278 4.31944 8.66667 4.47778 8.66667 4.66667V6.76667L9.25 6.18333C9.31667 6.11667 9.39167 6.06667 9.475 6.03333C9.55833 6 9.64167 5.98611 9.725 5.99167C9.80833 5.99722 9.89167 6.01667 9.975 6.05C10.0583 6.08333 10.1333 6.13333 10.2 6.2C10.3222 6.33333 10.3861 6.48889 10.3917 6.66667C10.3972 6.84444 10.3333 7 10.2 7.13333L8.46667 8.86667C8.4 8.93333 8.32778 8.98056 8.25 9.00833C8.17222 9.03611 8.08889 9.05 8 9.05C7.91111 9.05 7.82778 9.03611 7.75 9.00833C7.67222 8.98056 7.6 8.93333 7.53333 8.86667L5.8 7.13333C5.73333 7.06667 5.68333 6.99167 5.65 6.90833C5.61667 6.825 5.6 6.74167 5.6 6.65833C5.6 6.575 5.61667 6.49444 5.65 6.41667C5.68333 6.33889 5.73333 6.26667 5.8 6.2C5.93333 6.06667 6.09167 5.99722 6.275 5.99167C6.45833 5.98611 6.61667 6.05 6.75 6.18333L7.33333 6.76667ZM3.33333 14C2.96667 14 2.65278 13.8694 2.39167 13.6083C2.13056 13.3472 2 13.0333 2 12.6667V3.33333C2 2.96667 2.13056 2.65278 2.39167 2.39167C2.65278 2.13056 2.96667 2 3.33333 2H12.6667C13.0333 2 13.3472 2.13056 13.6083 2.39167C13.8694 2.65278 14 2.96667 14 3.33333V12.6667C14 13.0333 13.8694 13.3472 13.6083 13.6083C13.3472 13.8694 13.0333 14 12.6667 14H3.33333ZM3.33333 12.6667H12.6667V10.6667H10.6667C10.3333 11.0889 9.93611 11.4167 9.475 11.65C9.01389 11.8833 8.52222 12 8 12C7.47778 12 6.98611 11.8833 6.525 11.65C6.06389 11.4167 5.66667 11.0889 5.33333 10.6667H3.33333V12.6667ZM8 10.6667C8.35556 10.6667 8.68333 10.575 8.98333 10.3917C9.28333 10.2083 9.52778 9.96667 9.71667 9.66667C9.78333 9.56667 9.86667 9.48611 9.96667 9.425C10.0667 9.36389 10.1778 9.33333 10.3 9.33333H12.6667V3.33333H3.33333V9.33333H5.7C5.82222 9.33333 5.93333 9.36389 6.03333 9.425C6.13333 9.48611 6.21667 9.56667 6.28333 9.66667C6.47222 9.96667 6.71667 10.2083 7.01667 10.3917C7.31667 10.575 7.64444 10.6667 8 10.6667Z" fill="#55586B"/>
</g>
</svg>
