<svg width="16" height="16" viewBox="0 0 16 16" fill="none" xmlns="http://www.w3.org/2000/svg">
<mask id="mask0_48_646" style="mask-type:alpha" maskUnits="userSpaceOnUse" x="0" y="0" width="16" height="16">
<rect width="16" height="16" fill="#D9D9D9"/>
</mask>
<g mask="url(#mask0_48_646)">
<path d="M2.66927 12.6667C2.3026 12.6667 1.98872 12.5361 1.7276 12.275C1.46649 12.0139 1.33594 11.7 1.33594 11.3333V3.33333C1.33594 2.96667 1.46649 2.65278 1.7276 2.39167C1.98872 2.13056 2.3026 2 2.66927 2H13.3359C13.7026 2 14.0165 2.13056 14.2776 2.39167C14.5387 2.65278 14.6693 2.96667 14.6693 3.33333V11.3333C14.6693 11.7 14.5387 12.0139 14.2776 12.275C14.0165 12.5361 13.7026 12.6667 13.3359 12.6667H10.6693V13.3333C10.6693 13.5222 10.6054 13.6806 10.4776 13.8083C10.3498 13.9361 10.1915 14 10.0026 14H6.0026C5.81371 14 5.65538 13.9361 5.5276 13.8083C5.39983 13.6806 5.33594 13.5222 5.33594 13.3333V12.6667H2.66927ZM2.66927 11.3333H13.3359V3.33333H2.66927V11.3333ZM5.33594 10H10.6693V9.63333C10.6693 9.13333 10.4248 8.73611 9.93594 8.44167C9.44705 8.14722 8.8026 8 8.0026 8C7.2026 8 6.55816 8.14722 6.06927 8.44167C5.58038 8.73611 5.33594 9.13333 5.33594 9.63333V10ZM8.0026 7.33333C8.36927 7.33333 8.68316 7.20278 8.94427 6.94167C9.20538 6.68056 9.33594 6.36667 9.33594 6C9.33594 5.63333 9.20538 5.31944 8.94427 5.05833C8.68316 4.79722 8.36927 4.66667 8.0026 4.66667C7.63594 4.66667 7.32205 4.79722 7.06094 5.05833C6.79983 5.31944 6.66927 5.63333 6.66927 6C6.66927 6.36667 6.79983 6.68056 7.06094 6.94167C7.32205 7.20278 7.63594 7.33333 8.0026 7.33333Z" fill="#55586B"/>
</g>
</svg>
