<svg width="16" height="16" viewBox="0 0 16 16" fill="none" xmlns="http://www.w3.org/2000/svg">
<mask id="mask0_48_656" style="mask-type:alpha" maskUnits="userSpaceOnUse" x="0" y="0" width="16" height="16">
<rect width="16" height="16" fill="#D9D9D9"/>
</mask>
<g mask="url(#mask0_48_656)">
<path d="M9.9974 14.6667C9.63073 14.6667 9.31684 14.5362 9.05573 14.275C8.79462 14.0139 8.66406 13.7 8.66406 13.3334V10.6667C8.66406 10.4778 8.72795 10.3195 8.85573 10.1917C8.98351 10.0639 9.14184 10 9.33073 10C9.51962 10 9.67795 10.0639 9.80573 10.1917C9.93351 10.3195 9.9974 10.4778 9.9974 10.6667V13.3334H13.9974V4.00004H9.9974V5.33337C9.9974 5.52226 9.93351 5.6806 9.80573 5.80837C9.67795 5.93615 9.51962 6.00004 9.33073 6.00004C9.14184 6.00004 8.98351 5.93615 8.85573 5.80837C8.72795 5.6806 8.66406 5.52226 8.66406 5.33337V4.00004C8.66406 3.63337 8.79462 3.31949 9.05573 3.05837C9.31684 2.79726 9.63073 2.66671 9.9974 2.66671H13.9974C14.3641 2.66671 14.678 2.79726 14.9391 3.05837C15.2002 3.31949 15.3307 3.63337 15.3307 4.00004V13.3334C15.3307 13.7 15.2002 14.0139 14.9391 14.275C14.678 14.5362 14.3641 14.6667 13.9974 14.6667H9.9974ZM1.9974 13.3334C1.63073 13.3334 1.31684 13.2028 1.05573 12.9417C0.794618 12.6806 0.664062 12.3667 0.664062 12V2.66671C0.664062 2.30004 0.794618 1.98615 1.05573 1.72504C1.31684 1.46393 1.63073 1.33337 1.9974 1.33337H5.9974C6.36406 1.33337 6.67795 1.46393 6.93906 1.72504C7.20017 1.98615 7.33073 2.30004 7.33073 2.66671V5.33337C7.33073 5.52226 7.26684 5.6806 7.13906 5.80837C7.01129 5.93615 6.85295 6.00004 6.66406 6.00004C6.47517 6.00004 6.31684 5.93615 6.18906 5.80837C6.06129 5.6806 5.9974 5.52226 5.9974 5.33337V2.66671H1.9974V12H5.9974V10.6667C5.9974 10.4778 6.06129 10.3195 6.18906 10.1917C6.31684 10.0639 6.47517 10 6.66406 10C6.85295 10 7.01129 10.0639 7.13906 10.1917C7.26684 10.3195 7.33073 10.4778 7.33073 10.6667V12C7.33073 12.3667 7.20017 12.6806 6.93906 12.9417C6.67795 13.2028 6.36406 13.3334 5.9974 13.3334H1.9974ZM11.9974 5.66671C12.1418 5.66671 12.2613 5.61948 12.3557 5.52504C12.4502 5.4306 12.4974 5.31115 12.4974 5.16671C12.4974 5.02226 12.4502 4.90282 12.3557 4.80837C12.2613 4.71393 12.1418 4.66671 11.9974 4.66671C11.853 4.66671 11.7335 4.71393 11.6391 4.80837C11.5446 4.90282 11.4974 5.02226 11.4974 5.16671C11.4974 5.31115 11.5446 5.4306 11.6391 5.52504C11.7335 5.61948 11.853 5.66671 11.9974 5.66671ZM3.9974 4.33337C4.14184 4.33337 4.26128 4.28615 4.35573 4.19171C4.45017 4.09726 4.4974 3.97782 4.4974 3.83337C4.4974 3.68893 4.45017 3.56948 4.35573 3.47504C4.26128 3.3806 4.14184 3.33337 3.9974 3.33337C3.85295 3.33337 3.73351 3.3806 3.63906 3.47504C3.54462 3.56948 3.4974 3.68893 3.4974 3.83337C3.4974 3.97782 3.54462 4.09726 3.63906 4.19171C3.73351 4.28615 3.85295 4.33337 3.9974 4.33337ZM5.33073 8.66671C5.14184 8.66671 4.98351 8.60282 4.85573 8.47504C4.72795 8.34726 4.66406 8.18893 4.66406 8.00004C4.66406 7.81115 4.72795 7.65282 4.85573 7.52504C4.98351 7.39726 5.14184 7.33337 5.33073 7.33337C5.51962 7.33337 5.67795 7.39726 5.80573 7.52504C5.93351 7.65282 5.9974 7.81115 5.9974 8.00004C5.9974 8.18893 5.93351 8.34726 5.80573 8.47504C5.67795 8.60282 5.51962 8.66671 5.33073 8.66671ZM7.9974 8.66671C7.80851 8.66671 7.65017 8.60282 7.5224 8.47504C7.39462 8.34726 7.33073 8.18893 7.33073 8.00004C7.33073 7.81115 7.39462 7.65282 7.5224 7.52504C7.65017 7.39726 7.80851 7.33337 7.9974 7.33337C8.18629 7.33337 8.34462 7.39726 8.4724 7.52504C8.60017 7.65282 8.66406 7.81115 8.66406 8.00004C8.66406 8.18893 8.60017 8.34726 8.4724 8.47504C8.34462 8.60282 8.18629 8.66671 7.9974 8.66671ZM10.6641 8.66671C10.4752 8.66671 10.3168 8.60282 10.1891 8.47504C10.0613 8.34726 9.9974 8.18893 9.9974 8.00004C9.9974 7.81115 10.0613 7.65282 10.1891 7.52504C10.3168 7.39726 10.4752 7.33337 10.6641 7.33337C10.853 7.33337 11.0113 7.39726 11.1391 7.52504C11.2668 7.65282 11.3307 7.81115 11.3307 8.00004C11.3307 8.18893 11.2668 8.34726 11.1391 8.47504C11.0113 8.60282 10.853 8.66671 10.6641 8.66671Z" fill="#55586B"/>
</g>
</svg>
