<svg width="16" height="16" viewBox="0 0 16 16" fill="none" xmlns="http://www.w3.org/2000/svg">
<mask id="mask0_48_687" style="mask-type:alpha" maskUnits="userSpaceOnUse" x="0" y="0" width="16" height="16">
<rect width="16" height="16" fill="#D9D9D9"/>
</mask>
<g mask="url(#mask0_48_687)">
<path d="M9.36927 10.3667L8.9026 9.90004C8.76927 9.76671 8.61094 9.69726 8.4276 9.69171C8.24427 9.68615 8.08594 9.75004 7.9526 9.88337C7.81927 10.0167 7.7526 10.175 7.7526 10.3584C7.7526 10.5417 7.81927 10.7 7.9526 10.8334L8.9026 11.7834C9.03594 11.9167 9.19149 11.9834 9.36927 11.9834C9.54705 11.9834 9.7026 11.9167 9.83594 11.7834L12.2193 9.40004C12.3526 9.26671 12.4165 9.11115 12.4109 8.93337C12.4054 8.7556 12.3359 8.60004 12.2026 8.46671C12.0693 8.34448 11.9137 8.2806 11.7359 8.27504C11.5582 8.26948 11.4026 8.33337 11.2693 8.46671L9.36927 10.3667ZM5.33594 10H6.0026C6.19149 10 6.34983 9.93615 6.4776 9.80837C6.60538 9.6806 6.66927 9.52226 6.66927 9.33337C6.66927 9.14448 6.60538 8.98615 6.4776 8.85837C6.34983 8.7306 6.19149 8.66671 6.0026 8.66671H5.33594C5.14705 8.66671 4.98871 8.7306 4.86094 8.85837C4.73316 8.98615 4.66927 9.14448 4.66927 9.33337C4.66927 9.52226 4.73316 9.6806 4.86094 9.80837C4.98871 9.93615 5.14705 10 5.33594 10ZM5.33594 8.00004H8.66927C8.85816 8.00004 9.01649 7.93615 9.14427 7.80837C9.27205 7.6806 9.33594 7.52226 9.33594 7.33337C9.33594 7.14448 9.27205 6.98615 9.14427 6.85837C9.01649 6.7306 8.85816 6.66671 8.66927 6.66671H5.33594C5.14705 6.66671 4.98871 6.7306 4.86094 6.85837C4.73316 6.98615 4.66927 7.14448 4.66927 7.33337C4.66927 7.52226 4.73316 7.6806 4.86094 7.80837C4.98871 7.93615 5.14705 8.00004 5.33594 8.00004ZM5.33594 6.00004H8.66927C8.85816 6.00004 9.01649 5.93615 9.14427 5.80837C9.27205 5.6806 9.33594 5.52226 9.33594 5.33337C9.33594 5.14448 9.27205 4.98615 9.14427 4.85837C9.01649 4.7306 8.85816 4.66671 8.66927 4.66671H5.33594C5.14705 4.66671 4.98871 4.7306 4.86094 4.85837C4.73316 4.98615 4.66927 5.14448 4.66927 5.33337C4.66927 5.52226 4.73316 5.6806 4.86094 5.80837C4.98871 5.93615 5.14705 6.00004 5.33594 6.00004ZM8.0026 14.6667C7.08038 14.6667 6.21372 14.4917 5.4026 14.1417C4.59149 13.7917 3.88594 13.3167 3.28594 12.7167C2.68594 12.1167 2.21094 11.4112 1.86094 10.6C1.51094 9.78893 1.33594 8.92226 1.33594 8.00004C1.33594 7.07782 1.51094 6.21115 1.86094 5.40004C2.21094 4.58893 2.68594 3.88337 3.28594 3.28337C3.88594 2.68337 4.59149 2.20837 5.4026 1.85837C6.21372 1.50837 7.08038 1.33337 8.0026 1.33337C8.92483 1.33337 9.79149 1.50837 10.6026 1.85837C11.4137 2.20837 12.1193 2.68337 12.7193 3.28337C13.3193 3.88337 13.7943 4.58893 14.1443 5.40004C14.4943 6.21115 14.6693 7.07782 14.6693 8.00004C14.6693 8.92226 14.4943 9.78893 14.1443 10.6C13.7943 11.4112 13.3193 12.1167 12.7193 12.7167C12.1193 13.3167 11.4137 13.7917 10.6026 14.1417C9.79149 14.4917 8.92483 14.6667 8.0026 14.6667ZM8.0026 13.3334C9.49149 13.3334 10.7526 12.8167 11.7859 11.7834C12.8193 10.75 13.3359 9.48893 13.3359 8.00004C13.3359 6.51115 12.8193 5.25004 11.7859 4.21671C10.7526 3.18337 9.49149 2.66671 8.0026 2.66671C6.51371 2.66671 5.2526 3.18337 4.21927 4.21671C3.18594 5.25004 2.66927 6.51115 2.66927 8.00004C2.66927 9.48893 3.18594 10.75 4.21927 11.7834C5.2526 12.8167 6.51371 13.3334 8.0026 13.3334Z" fill="#55586B"/>
</g>
</svg>
