<svg width="16" height="16" viewBox="0 0 16 16" fill="none" xmlns="http://www.w3.org/2000/svg">
<mask id="mask0_48_652" style="mask-type:alpha" maskUnits="userSpaceOnUse" x="0" y="0" width="16" height="16">
<rect width="16" height="16" fill="#D9D9D9"/>
</mask>
<g mask="url(#mask0_48_652)">
<path d="M10.0026 4.66671C9.81371 4.66671 9.65538 4.60282 9.5276 4.47504C9.39983 4.34726 9.33594 4.18893 9.33594 4.00004C9.33594 3.81115 9.39983 3.65282 9.5276 3.52504C9.65538 3.39726 9.81371 3.33337 10.0026 3.33337H14.0026C14.1915 3.33337 14.3498 3.39726 14.4776 3.52504C14.6054 3.65282 14.6693 3.81115 14.6693 4.00004C14.6693 4.18893 14.6054 4.34726 14.4776 4.47504C14.3498 4.60282 14.1915 4.66671 14.0026 4.66671H10.0026ZM10.0026 7.33337C9.81371 7.33337 9.65538 7.26949 9.5276 7.14171C9.39983 7.01393 9.33594 6.8556 9.33594 6.66671C9.33594 6.47782 9.39983 6.31949 9.5276 6.19171C9.65538 6.06393 9.81371 6.00004 10.0026 6.00004H14.0026C14.1915 6.00004 14.3498 6.06393 14.4776 6.19171C14.6054 6.31949 14.6693 6.47782 14.6693 6.66671C14.6693 6.8556 14.6054 7.01393 14.4776 7.14171C14.3498 7.26949 14.1915 7.33337 14.0026 7.33337H10.0026ZM10.0026 10C9.81371 10 9.65538 9.93615 9.5276 9.80837C9.39983 9.6806 9.33594 9.52226 9.33594 9.33337C9.33594 9.14449 9.39983 8.98615 9.5276 8.85837C9.65538 8.7306 9.81371 8.66671 10.0026 8.66671H14.0026C14.1915 8.66671 14.3498 8.7306 14.4776 8.85837C14.6054 8.98615 14.6693 9.14449 14.6693 9.33337C14.6693 9.52226 14.6054 9.6806 14.4776 9.80837C14.3498 9.93615 14.1915 10 14.0026 10H10.0026ZM5.33594 9.33337C4.78038 9.33337 4.30816 9.13893 3.91927 8.75004C3.53038 8.36115 3.33594 7.88893 3.33594 7.33337C3.33594 6.77782 3.53038 6.3056 3.91927 5.91671C4.30816 5.52782 4.78038 5.33337 5.33594 5.33337C5.89149 5.33337 6.36372 5.52782 6.7526 5.91671C7.14149 6.3056 7.33594 6.77782 7.33594 7.33337C7.33594 7.88893 7.14149 8.36115 6.7526 8.75004C6.36372 9.13893 5.89149 9.33337 5.33594 9.33337ZM1.33594 12.6667V12.0667C1.33594 11.8334 1.39149 11.6112 1.5026 11.4C1.61372 11.1889 1.76927 11.0223 1.96927 10.9C2.46927 10.6 2.99983 10.375 3.56094 10.225C4.12205 10.075 4.71372 10 5.33594 10C5.95816 10 6.54983 10.075 7.11094 10.225C7.67205 10.375 8.2026 10.6 8.7026 10.9C8.9026 11.0223 9.05816 11.1889 9.16927 11.4C9.28038 11.6112 9.33594 11.8334 9.33594 12.0667V12.6667C9.33594 12.8556 9.27205 13.0139 9.14427 13.1417C9.01649 13.2695 8.85816 13.3334 8.66927 13.3334H2.0026C1.81372 13.3334 1.65538 13.2695 1.5276 13.1417C1.39983 13.0139 1.33594 12.8556 1.33594 12.6667ZM2.76927 12H7.9026C7.51372 11.7778 7.1026 11.6112 6.66927 11.5C6.23594 11.3889 5.79149 11.3334 5.33594 11.3334C4.88038 11.3334 4.43594 11.3889 4.0026 11.5C3.56927 11.6112 3.15816 11.7778 2.76927 12ZM5.33594 8.00004C5.52483 8.00004 5.68316 7.93615 5.81094 7.80837C5.93871 7.6806 6.0026 7.52226 6.0026 7.33337C6.0026 7.14449 5.93871 6.98615 5.81094 6.85837C5.68316 6.7306 5.52483 6.66671 5.33594 6.66671C5.14705 6.66671 4.98871 6.7306 4.86094 6.85837C4.73316 6.98615 4.66927 7.14449 4.66927 7.33337C4.66927 7.52226 4.73316 7.6806 4.86094 7.80837C4.98871 7.93615 5.14705 8.00004 5.33594 8.00004Z" fill="#55586B"/>
</g>
</svg>
