<svg width="16" height="16" viewBox="0 0 16 16" fill="none" xmlns="http://www.w3.org/2000/svg">
<mask id="mask0_48_662" style="mask-type:alpha" maskUnits="userSpaceOnUse" x="0" y="0" width="16" height="16">
<rect width="16" height="16" fill="#D9D9D9"/>
</mask>
<g mask="url(#mask0_48_662)">
<path d="M5.33594 14.6667C4.96927 14.6667 4.65538 14.5362 4.39427 14.275C4.13316 14.0139 4.0026 13.7 4.0026 13.3334V5.33337C4.0026 4.96671 4.13316 4.65282 4.39427 4.39171C4.65538 4.1306 4.96927 4.00004 5.33594 4.00004H13.3359C13.7026 4.00004 14.0165 4.1306 14.2776 4.39171C14.5387 4.65282 14.6693 4.96671 14.6693 5.33337V13.3334C14.6693 13.7 14.5387 14.0139 14.2776 14.275C14.0165 14.5362 13.7026 14.6667 13.3359 14.6667H5.33594ZM5.33594 13.3334H8.66927V11.3334H5.33594V13.3334ZM10.0026 13.3334H13.3359V11.3334H10.0026V13.3334ZM2.0026 12C1.81372 12 1.65538 11.9362 1.5276 11.8084C1.39983 11.6806 1.33594 11.5223 1.33594 11.3334V2.66671C1.33594 2.30004 1.46649 1.98615 1.7276 1.72504C1.98872 1.46393 2.3026 1.33337 2.66927 1.33337H11.3359C11.5248 1.33337 11.6832 1.39726 11.8109 1.52504C11.9387 1.65282 12.0026 1.81115 12.0026 2.00004C12.0026 2.18893 11.9387 2.34726 11.8109 2.47504C11.6832 2.60282 11.5248 2.66671 11.3359 2.66671H2.66927V11.3334C2.66927 11.5223 2.60538 11.6806 2.4776 11.8084C2.34983 11.9362 2.19149 12 2.0026 12ZM5.33594 10H8.66927V8.00004H5.33594V10ZM10.0026 10H13.3359V8.00004H10.0026V10ZM5.33594 6.66671H13.3359V5.33337H5.33594V6.66671Z" fill="#55586B"/>
</g>
</svg>
