<svg width="16" height="16" viewBox="0 0 16 16" fill="none" xmlns="http://www.w3.org/2000/svg">
<mask id="mask0_48_649" style="mask-type:alpha" maskUnits="userSpaceOnUse" x="0" y="0" width="16" height="16">
<rect width="16" height="16" fill="#D9D9D9"/>
</mask>
<g mask="url(#mask0_48_649)">
<path d="M3.33333 14C2.96667 14 2.65278 13.8694 2.39167 13.6083C2.13056 13.3472 2 13.0333 2 12.6666V3.33329C2 2.96663 2.13056 2.65274 2.39167 2.39163C2.65278 2.13051 2.96667 1.99996 3.33333 1.99996H6.13333C6.27778 1.59996 6.51944 1.27774 6.85833 1.03329C7.19722 0.788848 7.57778 0.666626 8 0.666626C8.42222 0.666626 8.80278 0.788848 9.14167 1.03329C9.48056 1.27774 9.72222 1.59996 9.86667 1.99996H12.6667C13.0333 1.99996 13.3472 2.13051 13.6083 2.39163C13.8694 2.65274 14 2.96663 14 3.33329V6.68329C14 6.87218 13.9361 7.03052 13.8083 7.15829C13.6806 7.28607 13.5222 7.34996 13.3333 7.34996C13.1444 7.34996 12.9861 7.28607 12.8583 7.15829C12.7306 7.03052 12.6667 6.87218 12.6667 6.68329V3.33329H3.33333V12.6666H6.66667C6.85556 12.6666 7.01389 12.7305 7.14167 12.8583C7.26944 12.9861 7.33333 13.1444 7.33333 13.3333C7.33333 13.5222 7.26944 13.6805 7.14167 13.8083C7.01389 13.9361 6.85556 14 6.66667 14H3.33333ZM3.33333 12.6666V3.33329V7.38329V7.33329V12.6666ZM5.33333 11.3333H7C7.18889 11.3333 7.34722 11.2694 7.475 11.1416C7.60278 11.0138 7.66667 10.8555 7.66667 10.6666C7.66667 10.4777 7.60278 10.3194 7.475 10.1916C7.34722 10.0638 7.18889 9.99996 7 9.99996H5.33333C5.14444 9.99996 4.98611 10.0638 4.85833 10.1916C4.73056 10.3194 4.66667 10.4777 4.66667 10.6666C4.66667 10.8555 4.73056 11.0138 4.85833 11.1416C4.98611 11.2694 5.14444 11.3333 5.33333 11.3333ZM5.33333 8.66663H8.66667C8.85556 8.66663 9.01389 8.60274 9.14167 8.47496C9.26944 8.34718 9.33333 8.18885 9.33333 7.99996C9.33333 7.81107 9.26944 7.65274 9.14167 7.52496C9.01389 7.39718 8.85556 7.33329 8.66667 7.33329H5.33333C5.14444 7.33329 4.98611 7.39718 4.85833 7.52496C4.73056 7.65274 4.66667 7.81107 4.66667 7.99996C4.66667 8.18885 4.73056 8.34718 4.85833 8.47496C4.98611 8.60274 5.14444 8.66663 5.33333 8.66663ZM5.33333 5.99996H10.6667C10.8556 5.99996 11.0139 5.93607 11.1417 5.80829C11.2694 5.68052 11.3333 5.52218 11.3333 5.33329C11.3333 5.1444 11.2694 4.98607 11.1417 4.85829C11.0139 4.73052 10.8556 4.66663 10.6667 4.66663H5.33333C5.14444 4.66663 4.98611 4.73052 4.85833 4.85829C4.73056 4.98607 4.66667 5.1444 4.66667 5.33329C4.66667 5.52218 4.73056 5.68052 4.85833 5.80829C4.98611 5.93607 5.14444 5.99996 5.33333 5.99996ZM8 2.83329C8.14444 2.83329 8.26389 2.78607 8.35833 2.69163C8.45278 2.59718 8.5 2.47774 8.5 2.33329C8.5 2.18885 8.45278 2.0694 8.35833 1.97496C8.26389 1.88051 8.14444 1.83329 8 1.83329C7.85556 1.83329 7.73611 1.88051 7.64167 1.97496C7.54722 2.0694 7.5 2.18885 7.5 2.33329C7.5 2.47774 7.54722 2.59718 7.64167 2.69163C7.73611 2.78607 7.85556 2.83329 8 2.83329ZM12 15.3333C11.0778 15.3333 10.2917 15.0083 9.64167 14.3583C8.99167 13.7083 8.66667 12.9222 8.66667 12C8.66667 11.0777 8.99167 10.2916 9.64167 9.64163C10.2917 8.99163 11.0778 8.66663 12 8.66663C12.9222 8.66663 13.7083 8.99163 14.3583 9.64163C15.0083 10.2916 15.3333 11.0777 15.3333 12C15.3333 12.9222 15.0083 13.7083 14.3583 14.3583C13.7083 15.0083 12.9222 15.3333 12 15.3333ZM11.6667 12.3333V13.6666C11.6667 13.7555 11.7 13.8333 11.7667 13.9C11.8333 13.9666 11.9111 14 12 14C12.0889 14 12.1667 13.9666 12.2333 13.9C12.3 13.8333 12.3333 13.7555 12.3333 13.6666V12.3333H13.6667C13.7556 12.3333 13.8333 12.3 13.9 12.2333C13.9667 12.1666 14 12.0888 14 12C14 11.9111 13.9667 11.8333 13.9 11.7666C13.8333 11.7 13.7556 11.6666 13.6667 11.6666H12.3333V10.3333C12.3333 10.2444 12.3 10.1666 12.2333 10.1C12.1667 10.0333 12.0889 9.99996 12 9.99996C11.9111 9.99996 11.8333 10.0333 11.7667 10.1C11.7 10.1666 11.6667 10.2444 11.6667 10.3333V11.6666H10.3333C10.2444 11.6666 10.1667 11.7 10.1 11.7666C10.0333 11.8333 10 11.9111 10 12C10 12.0888 10.0333 12.1666 10.1 12.2333C10.1667 12.3 10.2444 12.3333 10.3333 12.3333H11.6667Z" fill="#55586B"/>
</g>
</svg>
