<svg width="24" height="24" viewBox="0 0 24 24" fill="none" xmlns="http://www.w3.org/2000/svg">
<mask id="mask0_3026_183993" style="mask-type:alpha" maskUnits="userSpaceOnUse" x="0" y="0" width="24" height="24">
<rect width="24" height="24" fill="#D9D9D9"/>
</mask>
<g mask="url(#mask0_3026_183993)">
<path d="M15 7C14.7167 7 14.4792 6.90417 14.2875 6.7125C14.0958 6.52083 14 6.28333 14 6C14 5.71667 14.0958 5.47917 14.2875 5.2875C14.4792 5.09583 14.7167 5 15 5H21C21.2833 5 21.5208 5.09583 21.7125 5.2875C21.9042 5.47917 22 5.71667 22 6C22 6.28333 21.9042 6.52083 21.7125 6.7125C21.5208 6.90417 21.2833 7 21 7H15ZM15 11C14.7167 11 14.4792 10.9042 14.2875 10.7125C14.0958 10.5208 14 10.2833 14 10C14 9.71667 14.0958 9.47917 14.2875 9.2875C14.4792 9.09583 14.7167 9 15 9H21C21.2833 9 21.5208 9.09583 21.7125 9.2875C21.9042 9.47917 22 9.71667 22 10C22 10.2833 21.9042 10.5208 21.7125 10.7125C21.5208 10.9042 21.2833 11 21 11H15ZM15 15C14.7167 15 14.4792 14.9042 14.2875 14.7125C14.0958 14.5208 14 14.2833 14 14C14 13.7167 14.0958 13.4792 14.2875 13.2875C14.4792 13.0958 14.7167 13 15 13H21C21.2833 13 21.5208 13.0958 21.7125 13.2875C21.9042 13.4792 22 13.7167 22 14C22 14.2833 21.9042 14.5208 21.7125 14.7125C21.5208 14.9042 21.2833 15 21 15H15ZM8 14C7.16667 14 6.45833 13.7083 5.875 13.125C5.29167 12.5417 5 11.8333 5 11C5 10.1667 5.29167 9.45833 5.875 8.875C6.45833 8.29167 7.16667 8 8 8C8.83333 8 9.54167 8.29167 10.125 8.875C10.7083 9.45833 11 10.1667 11 11C11 11.8333 10.7083 12.5417 10.125 13.125C9.54167 13.7083 8.83333 14 8 14ZM2 19V18.1C2 17.75 2.08333 17.4167 2.25 17.1C2.41667 16.7833 2.65 16.5333 2.95 16.35C3.7 15.9 4.49583 15.5625 5.3375 15.3375C6.17917 15.1125 7.06667 15 8 15C8.93333 15 9.82083 15.1125 10.6625 15.3375C11.5042 15.5625 12.3 15.9 13.05 16.35C13.35 16.5333 13.5833 16.7833 13.75 17.1C13.9167 17.4167 14 17.75 14 18.1V19C14 19.2833 13.9042 19.5208 13.7125 19.7125C13.5208 19.9042 13.2833 20 13 20H3C2.71667 20 2.47917 19.9042 2.2875 19.7125C2.09583 19.5208 2 19.2833 2 19ZM4.15 18H11.85C11.2667 17.6667 10.65 17.4167 10 17.25C9.35 17.0833 8.68333 17 8 17C7.31667 17 6.65 17.0833 6 17.25C5.35 17.4167 4.73333 17.6667 4.15 18ZM8 12C8.28333 12 8.52083 11.9042 8.7125 11.7125C8.90417 11.5208 9 11.2833 9 11C9 10.7167 8.90417 10.4792 8.7125 10.2875C8.52083 10.0958 8.28333 10 8 10C7.71667 10 7.47917 10.0958 7.2875 10.2875C7.09583 10.4792 7 10.7167 7 11C7 11.2833 7.09583 11.5208 7.2875 11.7125C7.47917 11.9042 7.71667 12 8 12Z" fill="white"/>
</g>
</svg>
