<svg width="16" height="16" viewBox="0 0 16 16" fill="none" xmlns="http://www.w3.org/2000/svg">
<mask id="mask0_199_5722" style="mask-type:alpha" maskUnits="userSpaceOnUse" x="0" y="0" width="16" height="16">
<rect width="16" height="16" fill="#D9D9D9"/>
</mask>
<g mask="url(#mask0_199_5722)">
<path d="M8.00156 10.6666C8.8349 10.6666 9.54323 10.375 10.1266 9.79163C10.7099 9.20829 11.0016 8.49996 11.0016 7.66663C11.0016 6.83329 10.7099 6.12496 10.1266 5.54163C9.54323 4.95829 8.8349 4.66663 8.00156 4.66663C7.16823 4.66663 6.4599 4.95829 5.87656 5.54163C5.29323 6.12496 5.00156 6.83329 5.00156 7.66663C5.00156 8.49996 5.29323 9.20829 5.87656 9.79163C6.4599 10.375 7.16823 10.6666 8.00156 10.6666ZM8.00156 9.46663C7.50156 9.46663 7.07656 9.29163 6.72656 8.94163C6.37656 8.59163 6.20156 8.16663 6.20156 7.66663C6.20156 7.16663 6.37656 6.74163 6.72656 6.39163C7.07656 6.04163 7.50156 5.86663 8.00156 5.86663C8.50156 5.86663 8.92656 6.04163 9.27656 6.39163C9.62656 6.74163 9.80156 7.16663 9.80156 7.66663C9.80156 8.16663 9.62656 8.59163 9.27656 8.94163C8.92656 9.29163 8.50156 9.46663 8.00156 9.46663ZM8.00156 12.6666C6.51267 12.6666 5.15434 12.2666 3.92656 11.4666C2.69878 10.6666 1.72934 9.61107 1.01823 8.29996C0.962674 8.19996 0.921007 8.09718 0.893229 7.99163C0.865451 7.88607 0.851562 7.77774 0.851562 7.66663C0.851562 7.55551 0.865451 7.44718 0.893229 7.34163C0.921007 7.23607 0.962674 7.13329 1.01823 7.03329C1.72934 5.72218 2.69878 4.66663 3.92656 3.86663C5.15434 3.06663 6.51267 2.66663 8.00156 2.66663C9.49045 2.66663 10.8488 3.06663 12.0766 3.86663C13.3043 4.66663 14.2738 5.72218 14.9849 7.03329C15.0405 7.13329 15.0821 7.23607 15.1099 7.34163C15.1377 7.44718 15.1516 7.55551 15.1516 7.66663C15.1516 7.77774 15.1377 7.88607 15.1099 7.99163C15.0821 8.09718 15.0405 8.19996 14.9849 8.29996C14.2738 9.61107 13.3043 10.6666 12.0766 11.4666C10.8488 12.2666 9.49045 12.6666 8.00156 12.6666Z" fill="#55586B"/>
</g>
</svg>
